<?xml version="1.0" encoding="UTF-8"?><svg id="Layer_1" xmlns="http://www.w3.org/2000/svg" viewBox="0 0 123 110.86"><defs><style>.cls-1{fill:#0af8e4;}</style></defs><path class="cls-1" d="m101.21,110.38h-4.24c0-.11,0-.21,0-.32,0-2.99.01-5.98,0-8.97,0-.68-.08-1.37-.21-2.04-.26-1.32-1.11-2.19-2.5-2.34-.9-.1-1.78-.04-2.59.37-1.02.51-1.5,1.42-1.69,2.49-.11.6-.15,1.22-.15,1.83-.01,2.87,0,5.74,0,8.62v.37h-4.23v-17.43h4.23v1.4c.49-.33.95-.68,1.45-.95,1.41-.76,2.93-.92,4.5-.69,1.24.18,2.36.64,3.27,1.52.35.33.63.73.94,1.1.34-.33.68-.69,1.06-1.01,1.47-1.23,3.2-1.71,5.09-1.7,1.2,0,2.34.29,3.39.87,1.04.58,1.75,1.48,2.27,2.53.67,1.36.85,2.82.85,4.32,0,3.28,0,6.57,0,9.85,0,.06,0,.12,0,.2h-4.23c0-.12,0-.23,0-.33,0-2.98.01-5.96,0-8.95,0-.69-.07-1.39-.21-2.07-.28-1.39-1.08-2.11-2.49-2.32-.8-.12-1.59-.05-2.35.25-1.17.46-1.72,1.43-1.95,2.59-.11.59-.16,1.2-.17,1.8-.02,2.89,0,5.78,0,8.67,0,.11,0,.22,0,.36Z"/><path class="cls-1" d="m80.77,110.39h-4.22v-1.59c-2.17,1.75-4.58,2.27-7.21,1.71-2.19-.47-3.98-1.64-5.32-3.43-2.51-3.36-2.45-8.13.49-11.42.75-.84,1.63-1.51,2.63-2.04.99-.52,2.04-.84,3.15-.96,1.12-.12,2.23-.04,3.31.29,1.06.32,2.04.83,2.93,1.58v-1.58h4.24v17.44Zm-4.26-8.96c-.11-2.78-2.54-5.08-5.49-4.8-2.44.23-4.79,2.59-4.44,5.61.28,2.47,2.42,4.57,5.11,4.47,2.95-.11,4.98-2.62,4.83-5.28Z"/><path class="cls-1" d="m59.82,103.06h-13.48c.23.96.62,1.8,1.31,2.48,1.05,1.06,2.33,1.46,3.8,1.47,1.6,0,2.89-.65,4.03-1.71.11-.1.23-.2.36-.31.97.77,1.92,1.53,2.89,2.3-1.58,1.93-3.5,3.25-6.04,3.5-1.8.17-3.56.03-5.24-.7-1.88-.82-3.32-2.13-4.26-3.97-.88-1.72-1.23-3.55-1.01-5.47.26-2.33,1.27-4.31,3.04-5.87,1.04-.93,2.24-1.57,3.6-1.9,1.14-.27,2.29-.34,3.46-.2,1.42.17,2.74.6,3.93,1.42,1.12.77,2.01,1.75,2.63,2.96.93,1.81,1.21,3.74,1.05,5.74,0,.07-.02.14-.04.26Zm-4.2-3.15c-.21-1.06-.65-1.95-1.52-2.58-.8-.58-1.71-.81-2.67-.85-1.98-.08-3.54.66-4.57,2.4-.18.31-.3.67-.46,1.03h9.22Z"/><path class="cls-1" d="m13.63,94.74c-.78,1.06-1.51,2.06-2.27,3.08-.17-.1-.33-.2-.49-.29-1.4-.83-2.9-1.17-4.52-1-.48.05-.95.18-1.21.64-.35.63-.14,1.34.56,1.72.57.3,1.18.54,1.79.75,1.19.41,2.4.78,3.51,1.4,1.71.97,2.57,2.45,2.52,4.44-.03,1.37-.44,2.59-1.42,3.57-.88.89-1.98,1.39-3.2,1.62-1.63.3-3.26.26-4.86-.16-1.25-.32-2.37-.94-3.43-1.67-.2-.14-.4-.29-.61-.44.75-1.08,1.49-2.16,2.21-3.19.85.41,1.66.85,2.49,1.2,1.07.45,2.19.73,3.36.47.47-.1.93-.25,1.2-.69.42-.66.22-1.43-.54-1.83-.61-.32-1.27-.54-1.92-.78-1.01-.36-2.05-.66-3.05-1.06-1.16-.47-2.06-1.28-2.57-2.45-.28-.65-.36-1.34-.35-2.04.02-1.48.49-2.78,1.56-3.83.6-.59,1.33-.99,2.13-1.25,1.32-.42,2.68-.43,4.04-.27,1.24.15,2.44.46,3.54,1.06.52.28,1,.64,1.52.97Z"/><path class="cls-1" d="m26.97,106.3c0,.08,0,.17,0,.26,0,1.08,0,2.16,0,3.24,0,.19-.05.28-.25.34-1.2.4-2.44.57-3.7.47-1.91-.15-3.35-1.14-4.07-2.94-.38-.96-.49-1.96-.48-2.98,0-2.44,0-4.88,0-7.33v-.35h-2.76v-4.09h2.76v-5.72h4.25v5.71h4.71v4.09h-4.68c0,.09-.02.15-.02.21,0,2.29,0,4.57,0,6.86,0,.32.04.64.11.95.19.89.78,1.39,1.7,1.41.4.01.8,0,1.21-.03.4-.02.8-.07,1.23-.1Z"/><path class="cls-1" d="m30.58,92.94h4.21v1.72c1.8-1.89,4.04-2.18,6.44-2.02v4.04c-.11,0-.23,0-.34,0-.99,0-1.97,0-2.94.21-1.77.39-2.95,1.71-3.09,3.52-.03.35-.04.69-.04,1.04,0,2.86,0,5.72,0,8.59,0,.11,0,.22,0,.34h-4.22v-17.44Z"/><path class="cls-1" d="m24.33,31.49h-2.8c-.24,0-.43.19-.43.43v12.64c0,.24.19.43.43.43h2.8c6.88,0,10.59-2.84,10.59-6.75s-3.67-6.74-10.59-6.74Z"/><path class="cls-1" d="m81.51,36.37c-.14-.17-.41-.3-.63-.32h-7.08c-.22.02-.4.2-.4.43v6.76c0,1.31.4,1.79,2.1,1.79h12.19c.23,0,.3-.15.18-.32l-6.36-8.34Z"/><path class="cls-1" d="m82.2,0H9.2C4.12,0,0,4.12,0,9.2v64.66c0,1.45,1.18,2.63,2.63,2.63h79.57c26.56,0,40.8-17.12,40.8-38.24S108.76,0,82.2,0Zm24.31,34.55l-9.04,11.88s-.32.4-.94.4h-26.39c-3.31,0-4.4-1.95-4.4-3.6v-11.25c0-.24-.19-.43-.43-.43h-9.6c-2.74,0-4.1.63-4.1,1.92,0,.6,1.06,1.39,3.17,2.37,3.37,1.56,5.33,2.51,5.87,2.84,2.12,1.26,3.17,2.53,3.17,3.82s-.68,2.23-2.03,3.03c-1.46.85-3.49,1.28-6.08,1.28h-28.4c-.41.01-.83.02-1.26.02h-11.36c-.48,0-.86-.39-.86-.86v-15.5c0-.48.38-.86.86-.86h11.36c13.06,0,16.34,4.7,16.34,8.6,0,2.08-.93,4.38-3.77,6.09h0c-.13.09-.2.19-.2.31,0,.24.25.29.56.29h12.65c2.77,0,3.93-.44,4.06-1.72.08-.79-1.06-1.6-3.17-2.58-3.37-1.56-5.33-2.5-5.87-2.83-2.12-1.26-3.17-2.54-3.17-3.83,0-1.22.68-2.24,2.05-3.04,1.48-.87,2.87-1.19,6.11-1.3h20.92c.47,0,.86.39.86.86v3.33c-.01.24.18.43.42.43h13.66c.5,0,.76.34.77.35l7.11,10.07c.14.19.37.2.51,0l7.7-10.08s.33-.34.69-.34h2.03c.41,0,.21.29.21.29Z"/></svg>